<?xml version="1.0" encoding="UTF-8" standalone="yes"?><svg xmlns="http://www.w3.org/2000/svg" xmlns:xlink="http://www.w3.org/1999/xlink" height="642px" style="width:866px;height:642px;" version="1.1" viewBox="0 0 866 642" width="866px"><defs><filter height="300%" id="f1" width="300%" x="-1" y="-1"><feGaussianBlur result="blurOut" stdDeviation="2.0"/><feColorMatrix in="blurOut" result="blurOut2" type="matrix" values="0 0 0 0 0 0 0 0 0 0 0 0 0 0 0 0 0 0 .4 0"/><feOffset dx="4.0" dy="4.0" in="blurOut2" result="blurOut3"/><feBlend in="SourceGraphic" in2="blurOut3" mode="normal"/></filter></defs><g><text fill="#000000" font-family="sans-serif" font-size="14" font-weight="bold" lengthAdjust="spacingAndGlyphs" textLength="108" x="380.5" y="23.5352">ExampleFlow 1</text><text fill="#000000" font-family="sans-serif" font-size="14" font-weight="bold" lengthAdjust="spacingAndGlyphs" textLength="37" x="416" y="40.0234">     </text><line style="stroke: #A80036; stroke-width: 1.0;" x1="150" x2="150" y1="85.4648" y2="458.5703"/><line style="stroke: #A80036; stroke-width: 1.0; stroke-dasharray: 1.0,4.0;" x1="150" x2="150" y1="458.5703" y2="486.5703"/><line style="stroke: #A80036; stroke-width: 1.0;" x1="150" x2="150" y1="486.5703" y2="604.502"/><line style="stroke: #A80036; stroke-width: 1.0;" x1="516.5" x2="516.5" y1="85.4648" y2="458.5703"/><line style="stroke: #A80036; stroke-width: 1.0; stroke-dasharray: 1.0,4.0;" x1="516.5" x2="516.5" y1="458.5703" y2="486.5703"/><line style="stroke: #A80036; stroke-width: 1.0;" x1="516.5" x2="516.5" y1="486.5703" y2="604.502"/><line style="stroke: #A80036; stroke-width: 1.0;" x1="797.5" x2="797.5" y1="85.4648" y2="458.5703"/><line style="stroke: #A80036; stroke-width: 1.0; stroke-dasharray: 1.0,4.0;" x1="797.5" x2="797.5" y1="458.5703" y2="486.5703"/><line style="stroke: #A80036; stroke-width: 1.0;" x1="797.5" x2="797.5" y1="486.5703" y2="604.502"/><rect fill="#FEFECE" filter="url(#f1)" height="30.4883" style="stroke: #A80036; stroke-width: 1.5;" width="68" x="114" y="49.9766"/><text fill="#000000" font-family="sans-serif" font-size="14" lengthAdjust="spacingAndGlyphs" textLength="54" x="121" y="70.5117">Seller</text><rect fill="#FEFECE" filter="url(#f1)" height="30.4883" style="stroke: #A80036; stroke-width: 1.5;" width="68" x="114" y="603.502"/><text fill="#000000" font-family="sans-serif" font-size="14" lengthAdjust="spacingAndGlyphs" textLength="54" x="121" y="624.0371">Seller</text><rect fill="#FEFECE" filter="url(#f1)" height="30.4883" style="stroke: #A80036; stroke-width: 1.5;" width="75" x="477.5" y="49.9766"/><text fill="#000000" font-family="sans-serif" font-size="14" lengthAdjust="spacingAndGlyphs" textLength="61" x="484.5" y="70.5117">Buyer</text><rect fill="#FEFECE" filter="url(#f1)" height="30.4883" style="stroke: #A80036; stroke-width: 1.5;" width="75" x="477.5" y="603.502"/><text fill="#000000" font-family="sans-serif" font-size="14" lengthAdjust="spacingAndGlyphs" textLength="61" x="484.5" y="624.0371">Buyer</text><rect fill="#FEFECE" filter="url(#f1)" height="30.4883" style="stroke: #A80036; stroke-width: 1.5;" width="59" x="766.5" y="49.9766"/><text fill="#000000" font-family="sans-serif" font-size="14" lengthAdjust="spacingAndGlyphs" textLength="45" x="773.5" y="70.5117">Notary</text><rect fill="#FEFECE" filter="url(#f1)" height="30.4883" style="stroke: #A80036; stroke-width: 1.5;" width="59" x="766.5" y="603.502"/><text fill="#000000" font-family="sans-serif" font-size="14" lengthAdjust="spacingAndGlyphs" textLength="45" x="773.5" y="624.0371">Notary</text><polygon fill="#FBFB77" filter="url(#f1)" points="8,100.4648,8,125.4648,289,125.4648,289,110.4648,279,100.4648,8,100.4648" style="stroke: #A80036; stroke-width: 1.0;"/><line style="stroke: #A80036; stroke-width: 2.0;" x1="279" x2="279" y1="100.4648" y2="110.4648"/><line style="stroke: #A80036; stroke-width: 1.0;" x1="289" x2="279" y1="110.4648" y2="110.4648"/><text fill="#000000" font-family="sans-serif" font-size="13" lengthAdjust="spacingAndGlyphs" textLength="260" x="14" y="118.0332">Generating transaction based on new ShareContract</text><polygon fill="#FBFB77" filter="url(#f1)" points="42,139.7754,42,164.7754,254,164.7754,254,149.7754,244,139.7754,42,139.7754" style="stroke: #A80036; stroke-width: 1.0;"/><line style="stroke: #A80036; stroke-width: 1.0;" x1="244" x2="244" y1="139.7754" y2="149.7754"/><line style="stroke: #A80036; stroke-width: 1.0;" x1="254" x2="244" y1="149.7754" y2="149.7754"/><text fill="#000000" font-family="sans-serif" font-size="13" lengthAdjust="spacingAndGlyphs" textLength="191" x="48" y="157.3438">Verifying contract constraints.</text><polygon fill="#FBFB77" filter="url(#f1)" points="24,179.0859,24,204.0859,271,204.0859,271,189.0859,261,179.0859,24,179.0859" style="stroke: #A80036; stroke-width: 1.0;"/><line style="stroke: #A80036; stroke-width: 1.0;" x1="261" x2="261" y1="179.0859" y2="189.0859"/><line style="stroke: #A80036; stroke-width: 1.0;" x1="271" x2="261" y1="189.0859" y2="189.0859"/><text fill="#000000" font-family="sans-serif" font-size="13" lengthAdjust="spacingAndGlyphs" textLength="226" x="30" y="196.6543">Signing transaction with private key</text><polygon fill="#A80036" points="505,230.3965,515,234.3965,505,238.3965,509,234.3965" style="stroke: #A80036; stroke-width: 1.0;"/><line style="stroke: #A80036; stroke-width: 1.0;" x1="150" x2="511" y1="234.3965" y2="234.3965"/><text fill="#000000" font-family="sans-serif" font-size="13" font-weight="bold" lengthAdjust="spacingAndGlyphs" textLength="9" x="157" y="229.9648">1</text><text fill="#000000" font-family="sans-serif" font-size="13" lengthAdjust="spacingAndGlyphs" textLength="330" x="170" y="229.9648">Sending proposed transaction to recipient for review</text><polygon fill="#FBFB77" filter="url(#f1)" points="365,247.707,365,272.707,664,272.707,664,257.707,654,247.707,365,247.707" style="stroke: #A80036; stroke-width: 1.0;"/><line style="stroke: #A80036; stroke-width: 1.0;" x1="654" x2="654" y1="247.707" y2="257.707"/><line style="stroke: #A80036; stroke-width: 1.0;" x1="664" x2="654" y1="257.707" y2="257.707"/><text fill="#000000" font-family="sans-serif" font-size="13" lengthAdjust="spacingAndGlyphs" textLength="278" x="371" y="265.2754">Receiving proposed transaction from sender</text><polygon fill="#FBFB77" filter="url(#f1)" points="362,287.0176,362,312.0176,667,312.0176,667,297.0176,657,287.0176,362,287.0176" style="stroke: #A80036; stroke-width: 1.0;"/><line style="stroke: #A80036; stroke-width: 1.0;" x1="657" x2="657" y1="287.0176" y2="297.0176"/><line style="stroke: #A80036; stroke-width: 1.0;" x1="667" x2="657" y1="297.0176" y2="297.0176"/><text fill="#000000" font-family="sans-serif" font-size="13" lengthAdjust="spacingAndGlyphs" textLength="284" x="368" y="304.5859">Verifying signatures and contract constraints</text><polygon fill="#FBFB77" filter="url(#f1)" points="347,326.3281,347,351.3281,682,351.3281,682,336.3281,672,326.3281,347,326.3281" style="stroke: #A80036; stroke-width: 1.0;"/><line style="stroke: #A80036; stroke-width: 1.0;" x1="672" x2="672" y1="326.3281" y2="336.3281"/><line style="stroke: #A80036; stroke-width: 1.0;" x1="682" x2="672" y1="336.3281" y2="336.3281"/><text fill="#000000" font-family="sans-serif" font-size="13" lengthAdjust="spacingAndGlyphs" textLength="314" x="353" y="343.8965">Signing proposed transaction with our private key</text><polygon fill="#A80036" points="786,377.6387,796,381.6387,786,385.6387,790,381.6387" style="stroke: #A80036; stroke-width: 1.0;"/><line style="stroke: #A80036; stroke-width: 1.0;" x1="517" x2="792" y1="381.6387" y2="381.6387"/><text fill="#000000" font-family="sans-serif" font-size="13" font-weight="bold" lengthAdjust="spacingAndGlyphs" textLength="9" x="524" y="377.207">2</text><text fill="#000000" font-family="sans-serif" font-size="13" lengthAdjust="spacingAndGlyphs" textLength="244" x="537" y="377.207">Requesting signature by notary service</text><polygon fill="#FBFB77" filter="url(#f1)" points="734,394.9492,734,419.9492,857,419.9492,857,404.9492,847,394.9492,734,394.9492" style="stroke: #A80036; stroke-width: 1.0;"/><line style="stroke: #A80036; stroke-width: 1.0;" x1="847" x2="847" y1="394.9492" y2="404.9492"/><line style="stroke: #A80036; stroke-width: 1.0;" x1="857" x2="847" y1="404.9492" y2="404.9492"/><text fill="#000000" font-family="sans-serif" font-size="13" lengthAdjust="spacingAndGlyphs" textLength="102" x="740" y="412.5176">Sign transaction</text><polygon fill="#A80036" points="528,446.2598,518,450.2598,528,454.2598,524,450.2598" style="stroke: #A80036; stroke-width: 1.0;"/><line style="stroke: #A80036; stroke-width: 1.0;" x1="522" x2="797" y1="450.2598" y2="450.2598"/><text fill="#000000" font-family="sans-serif" font-size="13" font-weight="bold" lengthAdjust="spacingAndGlyphs" textLength="9" x="534" y="445.8281">3</text><text fill="#000000" font-family="sans-serif" font-size="13" lengthAdjust="spacingAndGlyphs" textLength="168" x="547" y="445.8281">Receive signed transaction</text><polygon fill="#FBFB77" filter="url(#f1)" points="445,491.5703,445,516.5703,584,516.5703,584,501.5703,574,491.5703,445,491.5703" style="stroke: #A80036; stroke-width: 1.0;"/><line style="stroke: #A80036; stroke-width: 1.0;" x1="574" x2="574" y1="491.5703" y2="501.5703"/><line style="stroke: #A80036; stroke-width: 1.0;" x1="584" x2="574" y1="501.5703" y2="501.5703"/><text fill="#000000" font-family="sans-serif" font-size="13" lengthAdjust="spacingAndGlyphs" textLength="118" x="451" y="509.1387">Record transaction</text><polygon fill="#A80036" points="161,542.8809,151,546.8809,161,550.8809,157,546.8809" style="stroke: #A80036; stroke-width: 1.0;"/><line style="stroke: #A80036; stroke-width: 1.0;" x1="155" x2="516" y1="546.8809" y2="546.8809"/><text fill="#000000" font-family="sans-serif" font-size="13" font-weight="bold" lengthAdjust="spacingAndGlyphs" textLength="9" x="167" y="542.4492">4</text><text fill="#000000" font-family="sans-serif" font-size="13" lengthAdjust="spacingAndGlyphs" textLength="252" x="180" y="542.4492">Broadcasting transaction to participants</text><polygon fill="#FBFB77" filter="url(#f1)" points="78,560.1914,78,585.1914,217,585.1914,217,570.1914,207,560.1914,78,560.1914" style="stroke: #A80036; stroke-width: 1.0;"/><line style="stroke: #A80036; stroke-width: 1.0;" x1="207" x2="207" y1="560.1914" y2="570.1914"/><line style="stroke: #A80036; stroke-width: 1.0;" x1="217" x2="207" y1="570.1914" y2="570.1914"/><text fill="#000000" font-family="sans-serif" font-size="13" lengthAdjust="spacingAndGlyphs" textLength="118" x="84" y="577.7598">Record transaction</text></g></svg>